<svg width="121" height="24" viewBox="0 0 121 24" fill="none" xmlns="http://www.w3.org/2000/svg">
  <path d="M0.0575 6.168C0.0575 4.48267 0.6975 3.14933 1.9775 2.168C3.27883 1.16533 5.12417 0.664 7.5135 0.664C9.3055 0.664 10.8095 0.866666 12.0255 1.272V5.816C10.7455 5.32533 9.4655 5.08 8.1855 5.08C6.9055 5.08 6.0415 5.22933 5.5935 5.528C5.1455 5.82667 4.9215 6.232 4.9215 6.744V17.272C4.9215 17.784 5.0815 18.1787 5.4015 18.456C5.7215 18.712 6.19083 18.84 6.8095 18.84C7.4495 18.84 7.94017 18.7547 8.2815 18.584V11.096H12.9535V21.816C11.2895 22.712 9.31617 23.16 7.0335 23.16C4.75083 23.16 3.01217 22.6907 1.8175 21.752C0.644167 20.8133 0.0575 19.4907 0.0575 17.784V6.168ZM24.8183 23L23.8903 17.88H19.5063L18.6423 23H14.0663L18.4183 0.823999H25.1063L29.3943 23H24.8183ZM20.1783 13.816H23.1863L21.6503 5.24L20.1783 13.816ZM48.8905 0.823999V23H44.2505V15.288C44.2505 13.0693 44.4532 10.8827 44.8585 8.728L41.7865 17.368H38.0745L35.0025 8.728C35.4078 10.712 35.6105 12.8987 35.6105 15.288V23H31.0025V0.823999H35.9305L39.9305 12.152L43.9305 0.823999H48.8905ZM51.7838 0.823999H63.0158V4.984H56.5838V9.688H62.1518V13.848H56.5838V18.84H63.0158V23H51.7838V0.823999Z" fill="white"/>
  <path d="M73.2525 6.328C73.2525 5.432 72.7938 4.984 71.8765 4.984H70.0845V12.44H71.8765C72.7938 12.44 73.2525 11.992 73.2525 11.096V6.328ZM65.2525 0.823999H72.4845C74.2125 0.823999 75.5672 1.24 76.5485 2.072C77.5512 2.904 78.0525 4.13067 78.0525 5.752V11.672C78.0525 13.2933 77.5512 14.52 76.5485 15.352C75.5672 16.184 74.2125 16.6 72.4845 16.6H70.0845V23H65.2525V0.823999ZM80.2838 0.823999H85.1478V18.968H91.0678V23H80.2838V0.823999ZM100.979 0.823999H105.779V17.592C105.779 19.3413 105.213 20.7387 104.083 21.784C102.973 22.808 101.32 23.32 99.1228 23.32C96.9468 23.32 95.2934 22.808 94.1628 21.784C93.0534 20.76 92.4988 19.3627 92.4988 17.592V0.823999H97.2988V17.336C97.2988 18.4027 97.9068 18.936 99.1228 18.936C100.36 18.936 100.979 18.4027 100.979 17.336V0.823999ZM107.703 6.008C107.703 4.30133 108.279 2.98933 109.431 2.072C110.583 1.13333 112.236 0.664 114.391 0.664C116.567 0.664 118.188 0.887999 119.255 1.336V5.944C117.953 5.38933 116.471 5.112 114.807 5.112C113.953 5.112 113.377 5.25067 113.079 5.528C112.78 5.784 112.631 6.15733 112.631 6.648V7.128C112.631 7.72533 112.727 8.17333 112.919 8.472C113.132 8.74933 113.58 9.06933 114.263 9.432L117.911 11.48C119.66 12.44 120.535 13.88 120.535 15.8V17.784C120.535 19.512 119.895 20.8453 118.615 21.784C117.335 22.7013 115.532 23.16 113.207 23.16C110.903 23.16 109.164 22.9147 107.991 22.424V17.784C109.441 18.4027 111.084 18.712 112.919 18.712C114.753 18.712 115.671 18.1893 115.671 17.144V16.664C115.671 16.1733 115.564 15.8107 115.351 15.576C115.159 15.32 114.785 15.0427 114.231 14.744L110.807 12.888C108.737 11.736 107.703 10.1147 107.703 8.024V6.008Z" fill="#005382"/>
</svg>
